<svg width="83" height="40" viewBox="0 0 83 40" fill="none" xmlns="http://www.w3.org/2000/svg">
<path d="M10.9943 12.2183H15.92V18.0926H10.9943V28.3554C10.9943 30.504 11.9886 31.1897 13.8857 31.1897C14.5714 31.2011 15.2571 31.1326 15.92 30.984V36.4583C14.72 36.8926 13.4514 37.0983 12.1829 37.0526C7.40571 37.0526 4.42286 34.2183 4.42286 29.4869V18.0811H0V12.2297H1.24571C3.18857 12.3783 4.88 10.9383 5.02857 8.99543C5.05143 8.76686 5.04 8.54972 5.01714 8.33258V4.89258H10.9943V12.2183Z" fill="#262626"/>
<path d="M43.2571 29.6811C42.0114 33.9211 38.1257 37.4411 32.1028 37.4411C25.3828 37.4411 19.4514 32.6068 19.4514 24.3554C19.4514 16.5383 25.2228 11.464 31.5086 11.464C39.0743 11.464 43.6 16.2983 43.6 24.1611C43.6 25.1097 43.5086 26.104 43.5086 26.1954H25.9886C26.1943 29.4183 28.9371 31.8868 32.16 31.7726C34.6628 31.9668 36.9714 30.424 37.7257 28.0354L43.2571 29.6811ZM37.0857 21.6697C36.9943 19.224 35.3943 16.8354 31.6 16.8354C28.7771 16.7326 26.3771 18.8583 26.1143 21.6697H37.0857Z" fill="#262626"/>
<path d="M56.7543 9.52114V12.2069H62.2743V17.8754H56.7543V36.6983H50.0914V17.8869H46V12.2183H50.08V9.41828C50.08 3.89828 53.5657 0.309712 58.9829 0.309712C60.1029 0.275427 61.2114 0.446855 62.2629 0.812569V6.38971C61.5771 6.21828 60.88 6.12686 60.1714 6.14971C58.4686 5.96686 56.9371 7.21257 56.7657 8.91543C56.7314 9.10971 56.7314 9.31543 56.7543 9.52114Z" fill="#262626"/>
<path d="M75.7714 12.2183H80.6971V18.0926H75.7714V28.3554C75.7714 30.504 76.7657 31.1897 78.6628 31.1897C79.3485 31.2011 80.0342 31.1326 80.6971 30.984V36.4583C79.4971 36.8926 78.2285 37.0983 76.96 37.0526C72.1828 37.0526 69.2 34.2183 69.2 29.4869V18.0811H64.7771V12.2297H66.0228C67.9657 12.3783 69.6571 10.9383 69.8057 8.99543C69.8285 8.77829 69.8171 8.56115 69.7942 8.34401V4.89258H75.7714V12.2183Z" fill="#262626"/>
<path d="M29.2 9.14282C22.9143 9.14282 17.1429 14.2171 17.1429 22.0342C17.1429 22.6285 17.1772 23.2 17.2457 23.7714H41.2C41.2229 23.4742 41.2915 22.64 41.2915 21.8514C41.2915 13.9771 36.7657 9.14282 29.2 9.14282ZM23.8057 19.3485C24.0572 16.5371 26.4686 14.4114 29.28 14.5142C33.0743 14.5142 34.6629 16.9028 34.7657 19.3485H23.8057Z" fill="#8500D7"/>
<path d="M71.4515 20.3429V31.7372C71.4515 36.4686 74.4343 39.3029 79.2115 39.3029C80.48 39.3486 81.7486 39.1429 82.9486 38.7086V33.2343C82.2743 33.3829 81.6 33.4515 80.9143 33.44C79.0286 33.44 78.0229 32.7543 78.0229 30.6058V20.3429H71.4515Z" fill="#FF007A"/>
</svg>
